<?xml version="1.0" standalone="no"?>
<!DOCTYPE svg PUBLIC "-//W3C//DTD SVG 20010904//EN"
 "http://www.w3.org/TR/2001/REC-SVG-20010904/DTD/svg10.dtd">
<svg version="1.0" xmlns="http://www.w3.org/2000/svg"
 width="300.000000pt" height="68.000000pt" viewBox="0 0 300.000000 68.000000"
 preserveAspectRatio="xMidYMid meet">
<metadata>
Created by potrace 1.16, written by Peter Selinger 2001-2019
</metadata>
<g transform="translate(0.000000,68.000000) scale(0.100000,-0.100000)"
fill="#000000" stroke="none">
<path d="M325 367 c-40 -40 -45 -72 -15 -109 25 -33 71 -51 115 -46 19 2 35 0
35 -4 0 -4 10 -8 23 -8 30 0 66 -26 77 -56 11 -28 43 -31 94 -10 45 19 66 52
66 103 0 43 -1 43 -32 41 -18 -1 -47 -12 -64 -25 -29 -22 -101 -32 -117 -17
-3 3 1 20 9 38 30 62 -13 112 -104 123 -49 5 -53 4 -87 -30z"/>
</g>
</svg>
